<svg xmlns="http://www.w3.org/2000/svg" version="1.1" width="1848" height="969" preserveAspectRatio="none" style="stroke-width: 2px; font-size: 11px; font-family: sans-serif; shape-rendering: crispedges;" id="SVG" viewBox="-20 -47 1971.816650390625 1043"><rect id="backgroundRect" x="-20" y="-47" width="1971.816650390625" height="1043" fill="white"></rect><path d="M 1848 969 H 1586.6138613861385 V 961.5461538461539" fill="none" stroke="black" stroke-width="2" class="treeEdge" vector-effect="non-scaling-stroke" id="node#37"></path><path d="M 1848 954.0923076923077 H 1586.6138613861385 V 961.5461538461539" fill="none" stroke="black" stroke-width="2" class="treeEdge" vector-effect="non-scaling-stroke" id="node#38"></path><path d="M 1848 939.1846153846154 H 1325.2277227722773 V 950.3653846153845" fill="none" stroke="black" stroke-width="2" class="treeEdge" vector-effect="non-scaling-stroke" id="node#39"></path><path d="M 1848 924.276923076923 H 1586.6138613861385 V 924.276923076923" fill="none" stroke="black" stroke-width="2" class="treeEdge" vector-effect="non-scaling-stroke" id="node#41"></path><path d="M 1848 909.3692307692307 H 1586.6138613861385 V 887.0076923076923" fill="none" stroke="black" stroke-width="2" class="treeEdge" vector-effect="non-scaling-stroke" id="node#43"></path><path d="M 1848 894.4615384615386 H 1586.6138613861385 V 887.0076923076923" fill="none" stroke="black" stroke-width="2" class="treeEdge" vector-effect="non-scaling-stroke" id="node#44"></path><path d="M 1848 879.5538461538462 H 1586.6138613861385 V 887.0076923076923" fill="none" stroke="black" stroke-width="2" class="treeEdge" vector-effect="non-scaling-stroke" id="node#45"></path><path d="M 1848 864.6461538461538 H 1586.6138613861385 V 887.0076923076923" fill="none" stroke="black" stroke-width="2" class="treeEdge" vector-effect="non-scaling-stroke" id="node#46"></path><path d="M 1848 849.7384615384615 H 1586.6138613861385 V 834.8307692307693" fill="none" stroke="black" stroke-width="2" class="treeEdge" vector-effect="non-scaling-stroke" id="node#48"></path><path d="M 1848 834.8307692307693 H 1586.6138613861385 V 834.8307692307693" fill="none" stroke="black" stroke-width="2" class="treeEdge" vector-effect="non-scaling-stroke" id="node#49"></path><path d="M 1848 819.9230769230769 H 1586.6138613861385 V 834.8307692307693" fill="none" stroke="black" stroke-width="2" class="treeEdge" vector-effect="non-scaling-stroke" id="node#50"></path><path d="M 1848 805.0153846153845 H 1586.6138613861385 V 797.5615384615385" fill="none" stroke="black" stroke-width="2" class="treeEdge" vector-effect="non-scaling-stroke" id="node#31"></path><path d="M 1848 790.1076923076923 H 1586.6138613861385 V 797.5615384615385" fill="none" stroke="black" stroke-width="2" class="treeEdge" vector-effect="non-scaling-stroke" id="node#32"></path><path d="M 1848 775.2 H 1586.6138613861385 V 767.7461538461538" fill="none" stroke="black" stroke-width="2" class="treeEdge" vector-effect="non-scaling-stroke" id="node#17"></path><path d="M 1848 760.2923076923076 H 1586.6138613861385 V 767.7461538461538" fill="none" stroke="black" stroke-width="2" class="treeEdge" vector-effect="non-scaling-stroke" id="node#18"></path><path d="M 1848 745.3846153846154 H 1325.2277227722773 V 756.5653846153846" fill="none" stroke="black" stroke-width="2" class="treeEdge" vector-effect="non-scaling-stroke" id="node#19"></path><path d="M 1848 730.4769230769231 H 1063.8415841584158 V 734.2038461538461" fill="none" stroke="black" stroke-width="2" class="treeEdge" vector-effect="non-scaling-stroke" id="node#20"></path><path d="M 1848 715.5692307692308 H 1063.8415841584158 V 734.2038461538461" fill="none" stroke="black" stroke-width="2" class="treeEdge" vector-effect="non-scaling-stroke" id="node#21"></path><path d="M 1848 700.6615384615385 H 1586.6138613861385 V 693.2076923076924" fill="none" stroke="black" stroke-width="2" class="treeEdge" vector-effect="non-scaling-stroke" id="node#24"></path><path d="M 1848 685.7538461538461 H 1586.6138613861385 V 693.2076923076924" fill="none" stroke="black" stroke-width="2" class="treeEdge" vector-effect="non-scaling-stroke" id="node#25"></path><path d="M 1848 670.8461538461538 H 1325.2277227722773 V 673.3307692307692" fill="none" stroke="black" stroke-width="2" class="treeEdge" vector-effect="non-scaling-stroke" id="node#26"></path><path d="M 1848 655.9384615384615 H 1325.2277227722773 V 673.3307692307692" fill="none" stroke="black" stroke-width="2" class="treeEdge" vector-effect="non-scaling-stroke" id="node#27"></path><path d="M 1848 641.0307692307692 H 802.4554455445544 V 682.8551282051282" fill="none" stroke="black" stroke-width="2" class="treeEdge" vector-effect="non-scaling-stroke" id="node#28"></path><path d="M 1848 626.1230769230768 H 1586.6138613861385 V 611.2153846153846" fill="none" stroke="black" stroke-width="2" class="treeEdge" vector-effect="non-scaling-stroke" id="node#71"></path><path d="M 1848 611.2153846153846 H 1586.6138613861385 V 611.2153846153846" fill="none" stroke="black" stroke-width="2" class="treeEdge" vector-effect="non-scaling-stroke" id="node#72"></path><path d="M 1848 596.3076923076924 H 1586.6138613861385 V 611.2153846153846" fill="none" stroke="black" stroke-width="2" class="treeEdge" vector-effect="non-scaling-stroke" id="node#73"></path><path d="M 1848 581.4 H 1325.2277227722773 V 596.3076923076924" fill="none" stroke="black" stroke-width="2" class="treeEdge" vector-effect="non-scaling-stroke" id="node#74"></path><path d="M 1848 566.4923076923076 H 1586.6138613861385 V 566.4923076923076" fill="none" stroke="black" stroke-width="2" class="treeEdge" vector-effect="non-scaling-stroke" id="node#76"></path><path d="M 1848 551.5846153846154 H 802.4554455445544 V 566.4923076923076" fill="none" stroke="black" stroke-width="2" class="treeEdge" vector-effect="non-scaling-stroke" id="node#77"></path><path d="M 1848 536.6769230769231 H 541.0693069306931 V 551.5846153846154" fill="none" stroke="black" stroke-width="2" class="treeEdge" vector-effect="non-scaling-stroke" id="node#78"></path><path d="M 1848 521.7692307692307 H 1586.6138613861385 V 514.3153846153846" fill="none" stroke="black" stroke-width="2" class="treeEdge" vector-effect="non-scaling-stroke" id="node#57"></path><path d="M 1848 506.8615384615384 H 1586.6138613861385 V 514.3153846153846" fill="none" stroke="black" stroke-width="2" class="treeEdge" vector-effect="non-scaling-stroke" id="node#58"></path><path d="M 1848 491.95384615384614 H 1586.6138613861385 V 484.5" fill="none" stroke="black" stroke-width="2" class="treeEdge" vector-effect="non-scaling-stroke" id="node#53"></path><path d="M 1848 477.04615384615386 H 1586.6138613861385 V 484.5" fill="none" stroke="black" stroke-width="2" class="treeEdge" vector-effect="non-scaling-stroke" id="node#54"></path><path d="M 1848 462.1384615384615 H 1586.6138613861385 V 454.68461538461537" fill="none" stroke="black" stroke-width="2" class="treeEdge" vector-effect="non-scaling-stroke" id="node#61"></path><path d="M 1848 447.2307692307693 H 1586.6138613861385 V 454.68461538461537" fill="none" stroke="black" stroke-width="2" class="treeEdge" vector-effect="non-scaling-stroke" id="node#62"></path><path d="M 1848 432.3230769230769 H 1586.6138613861385 V 424.86923076923074" fill="none" stroke="black" stroke-width="2" class="treeEdge" vector-effect="non-scaling-stroke" id="node#64"></path><path d="M 1848 417.41538461538465 H 1586.6138613861385 V 424.86923076923074" fill="none" stroke="black" stroke-width="2" class="treeEdge" vector-effect="non-scaling-stroke" id="node#65"></path><path d="M 1848 402.50769230769225 H 1586.6138613861385 V 402.50769230769225" fill="none" stroke="black" stroke-width="2" class="treeEdge" vector-effect="non-scaling-stroke" id="node#82"></path><path d="M 1848 387.6 H 279.6831683168317 V 543.6722985347985" fill="none" stroke="black" stroke-width="2" class="treeEdge" vector-effect="non-scaling-stroke" id="node#83"></path><path d="M 1848 372.6923076923077 H 1586.6138613861385 V 365.23846153846154" fill="none" stroke="black" stroke-width="2" class="treeEdge" vector-effect="non-scaling-stroke" id="node#94"></path><path d="M 1848 357.7846153846154 H 1586.6138613861385 V 365.23846153846154" fill="none" stroke="black" stroke-width="2" class="treeEdge" vector-effect="non-scaling-stroke" id="node#95"></path><path d="M 1848 342.87692307692305 H 1325.2277227722773 V 354.0576923076923" fill="none" stroke="black" stroke-width="2" class="treeEdge" vector-effect="non-scaling-stroke" id="node#96"></path><path d="M 1848 327.96923076923076 H 1586.6138613861385 V 327.96923076923076" fill="none" stroke="black" stroke-width="2" class="treeEdge" vector-effect="non-scaling-stroke" id="node#91"></path><path d="M 1848 313.0615384615384 H 802.4554455445544 V 327.0375" fill="none" stroke="black" stroke-width="2" class="treeEdge" vector-effect="non-scaling-stroke" id="node#97"></path><path d="M 1848 298.1538461538462 H 1586.6138613861385 V 290.70000000000005" fill="none" stroke="black" stroke-width="2" class="treeEdge" vector-effect="non-scaling-stroke" id="node#3"></path><path d="M 1848 283.2461538461538 H 1586.6138613861385 V 290.70000000000005" fill="none" stroke="black" stroke-width="2" class="treeEdge" vector-effect="non-scaling-stroke" id="node#4"></path><path d="M 1848 268.33846153846156 H 1325.2277227722773 V 262.74807692307695" fill="none" stroke="black" stroke-width="2" class="treeEdge" vector-effect="non-scaling-stroke" id="node#5"></path><path d="M 1848 253.4307692307692 H 1325.2277227722773 V 262.74807692307695" fill="none" stroke="black" stroke-width="2" class="treeEdge" vector-effect="non-scaling-stroke" id="node#6"></path><path d="M 1848 238.52307692307693 H 1325.2277227722773 V 262.74807692307695" fill="none" stroke="black" stroke-width="2" class="treeEdge" vector-effect="non-scaling-stroke" id="node#7"></path><path d="M 1848 223.61538461538458 H 1586.6138613861385 V 208.70769230769233" fill="none" stroke="black" stroke-width="2" class="treeEdge" vector-effect="non-scaling-stroke" id="node#9"></path><path d="M 1848 208.70769230769233 H 1586.6138613861385 V 208.70769230769233" fill="none" stroke="black" stroke-width="2" class="treeEdge" vector-effect="non-scaling-stroke" id="node#10"></path><path d="M 1848 193.79999999999995 H 1586.6138613861385 V 208.70769230769233" fill="none" stroke="black" stroke-width="2" class="treeEdge" vector-effect="non-scaling-stroke" id="node#11"></path><path d="M 1848 178.8923076923077 H 1586.6138613861385 V 178.8923076923077" fill="none" stroke="black" stroke-width="2" class="treeEdge" vector-effect="non-scaling-stroke" id="node#86"></path><path d="M 1848 163.98461538461535 H 1325.2277227722773 V 171.43846153846158" fill="none" stroke="black" stroke-width="2" class="treeEdge" vector-effect="non-scaling-stroke" id="node#87"></path><path d="M 1848 149.0769230769231 H 1586.6138613861385 V 141.62307692307684" fill="none" stroke="black" stroke-width="2" class="treeEdge" vector-effect="non-scaling-stroke" id="node#99"></path><path d="M 1848 134.16923076923072 H 1586.6138613861385 V 141.62307692307684" fill="none" stroke="black" stroke-width="2" class="treeEdge" vector-effect="non-scaling-stroke" id="node#100"></path><path d="M 1848 119.26153846153846 H 18.297029702970313 V 146.12693528693507" fill="none" stroke="black" stroke-width="2" class="treeEdge" vector-effect="non-scaling-stroke" id="node#101"></path><path d="M 1848 104.3538461538461 H 18.297029702970313 V 146.12693528693507" fill="none" stroke="black" stroke-width="2" class="treeEdge" vector-effect="non-scaling-stroke" id="node#102"></path><path d="M 1848 89.44615384615385 H 18.297029702970313 V 146.12693528693507" fill="none" stroke="black" stroke-width="2" class="treeEdge" vector-effect="non-scaling-stroke" id="node#103"></path><path d="M 1848 74.53846153846149 H 18.297029702970313 V 146.12693528693507" fill="none" stroke="black" stroke-width="2" class="treeEdge" vector-effect="non-scaling-stroke" id="node#104"></path><path d="M 1848 59.63076923076923 H 18.297029702970313 V 146.12693528693507" fill="none" stroke="black" stroke-width="2" class="treeEdge" vector-effect="non-scaling-stroke" id="node#105"></path><path d="M 1848 44.723076923076874 H 18.297029702970313 V 146.12693528693507" fill="none" stroke="black" stroke-width="2" class="treeEdge" vector-effect="non-scaling-stroke" id="node#106"></path><path d="M 1848 29.815384615384616 H 18.297029702970313 V 146.12693528693507" fill="none" stroke="black" stroke-width="2" class="treeEdge" vector-effect="non-scaling-stroke" id="node#107"></path><path d="M 1848 14.907692307692255 H 18.297029702970313 V 146.12693528693507" fill="none" stroke="black" stroke-width="2" class="treeEdge" vector-effect="non-scaling-stroke" id="node#108"></path><path d="M 1848 0 H 18.297029702970313 V 146.12693528693507" fill="none" stroke="black" stroke-width="2" class="treeEdge" vector-effect="non-scaling-stroke" id="node#109"></path><path d="M 1586.6138613861385 961.5461538461539 H 1325.2277227722773 V 950.3653846153845" fill="none" stroke="black" stroke-width="2" class="treeEdge" vector-effect="non-scaling-stroke" id="node#36"></path><path d="M 1325.2277227722773 950.3653846153845 H 1063.8415841584158 V 937.3211538461538" fill="none" stroke="black" stroke-width="2" class="treeEdge" vector-effect="non-scaling-stroke" id="node#35"></path><path d="M 1586.6138613861385 924.276923076923 H 1063.8415841584158 V 937.3211538461538" fill="none" stroke="black" stroke-width="2" class="treeEdge" vector-effect="non-scaling-stroke" id="node#40"></path><path d="M 1063.8415841584158 937.3211538461538 H 802.4554455445544 V 886.3865384615384" fill="none" stroke="black" stroke-width="2" class="treeEdge" vector-effect="non-scaling-stroke" id="node#34"></path><path d="M 1586.6138613861385 887.0076923076923 H 802.4554455445544 V 886.3865384615384" fill="none" stroke="black" stroke-width="2" class="treeEdge" vector-effect="non-scaling-stroke" id="node#42"></path><path d="M 1586.6138613861385 834.8307692307693 H 802.4554455445544 V 886.3865384615384" fill="none" stroke="black" stroke-width="2" class="treeEdge" vector-effect="non-scaling-stroke" id="node#47"></path><path d="M 802.4554455445544 886.3865384615384 H 541.0693069306931 V 841.9740384615385" fill="none" stroke="black" stroke-width="2" class="treeEdge" vector-effect="non-scaling-stroke" id="node#33"></path><path d="M 1586.6138613861385 797.5615384615385 H 541.0693069306931 V 841.9740384615385" fill="none" stroke="black" stroke-width="2" class="treeEdge" vector-effect="non-scaling-stroke" id="node#30"></path><path d="M 541.0693069306931 841.9740384615385 H 279.6831683168317 V 543.6722985347985" fill="none" stroke="black" stroke-width="2" class="treeEdge" vector-effect="non-scaling-stroke" id="node#29"></path><path d="M 1586.6138613861385 767.7461538461538 H 1325.2277227722773 V 756.5653846153846" fill="none" stroke="black" stroke-width="2" class="treeEdge" vector-effect="non-scaling-stroke" id="node#16"></path><path d="M 1325.2277227722773 756.5653846153846 H 1063.8415841584158 V 734.2038461538461" fill="none" stroke="black" stroke-width="2" class="treeEdge" vector-effect="non-scaling-stroke" id="node#15"></path><path d="M 1063.8415841584158 734.2038461538461 H 802.4554455445544 V 682.8551282051282" fill="none" stroke="black" stroke-width="2" class="treeEdge" vector-effect="non-scaling-stroke" id="node#14"></path><path d="M 1586.6138613861385 693.2076923076924 H 1325.2277227722773 V 673.3307692307692" fill="none" stroke="black" stroke-width="2" class="treeEdge" vector-effect="non-scaling-stroke" id="node#23"></path><path d="M 1325.2277227722773 673.3307692307692 H 802.4554455445544 V 682.8551282051282" fill="none" stroke="black" stroke-width="2" class="treeEdge" vector-effect="non-scaling-stroke" id="node#22"></path><path d="M 802.4554455445544 682.8551282051282 H 279.6831683168317 V 543.6722985347985" fill="none" stroke="black" stroke-width="2" class="treeEdge" vector-effect="non-scaling-stroke" id="node#13"></path><path d="M 1586.6138613861385 611.2153846153846 H 1325.2277227722773 V 596.3076923076924" fill="none" stroke="black" stroke-width="2" class="treeEdge" vector-effect="non-scaling-stroke" id="node#70"></path><path d="M 1325.2277227722773 596.3076923076924 H 1063.8415841584158 V 581.4" fill="none" stroke="black" stroke-width="2" class="treeEdge" vector-effect="non-scaling-stroke" id="node#69"></path><path d="M 1586.6138613861385 566.4923076923076 H 1063.8415841584158 V 581.4" fill="none" stroke="black" stroke-width="2" class="treeEdge" vector-effect="non-scaling-stroke" id="node#75"></path><path d="M 1063.8415841584158 581.4 H 802.4554455445544 V 566.4923076923076" fill="none" stroke="black" stroke-width="2" class="treeEdge" vector-effect="non-scaling-stroke" id="node#68"></path><path d="M 802.4554455445544 566.4923076923076 H 541.0693069306931 V 551.5846153846154" fill="none" stroke="black" stroke-width="2" class="treeEdge" vector-effect="non-scaling-stroke" id="node#67"></path><path d="M 541.0693069306931 551.5846153846154 H 279.6831683168317 V 543.6722985347985" fill="none" stroke="black" stroke-width="2" class="treeEdge" vector-effect="non-scaling-stroke" id="node#66"></path><path d="M 1586.6138613861385 514.3153846153846 H 1325.2277227722773 V 514.3153846153846" fill="none" stroke="black" stroke-width="2" class="treeEdge" vector-effect="non-scaling-stroke" id="node#56"></path><path d="M 1325.2277227722773 514.3153846153846 H 1063.8415841584158 V 499.40769230769223" fill="none" stroke="black" stroke-width="2" class="treeEdge" vector-effect="non-scaling-stroke" id="node#55"></path><path d="M 1586.6138613861385 484.5 H 1063.8415841584158 V 499.40769230769223" fill="none" stroke="black" stroke-width="2" class="treeEdge" vector-effect="non-scaling-stroke" id="node#52"></path><path d="M 1063.8415841584158 499.40769230769223 H 279.6831683168317 V 543.6722985347985" fill="none" stroke="black" stroke-width="2" class="treeEdge" vector-effect="non-scaling-stroke" id="node#51"></path><path d="M 1586.6138613861385 454.68461538461537 H 1325.2277227722773 V 439.776923076923" fill="none" stroke="black" stroke-width="2" class="treeEdge" vector-effect="non-scaling-stroke" id="node#60"></path><path d="M 1586.6138613861385 424.86923076923074 H 1325.2277227722773 V 439.776923076923" fill="none" stroke="black" stroke-width="2" class="treeEdge" vector-effect="non-scaling-stroke" id="node#63"></path><path d="M 1325.2277227722773 439.776923076923 H 279.6831683168317 V 543.6722985347985" fill="none" stroke="black" stroke-width="2" class="treeEdge" vector-effect="non-scaling-stroke" id="node#59"></path><path d="M 1586.6138613861385 402.50769230769225 H 1325.2277227722773 V 402.50769230769225" fill="none" stroke="black" stroke-width="2" class="treeEdge" vector-effect="non-scaling-stroke" id="node#81"></path><path d="M 1325.2277227722773 402.50769230769225 H 1063.8415841584158 V 402.50769230769225" fill="none" stroke="black" stroke-width="2" class="treeEdge" vector-effect="non-scaling-stroke" id="node#80"></path><path d="M 1063.8415841584158 402.50769230769225 H 279.6831683168317 V 543.6722985347985" fill="none" stroke="black" stroke-width="2" class="treeEdge" vector-effect="non-scaling-stroke" id="node#79"></path><path d="M 279.6831683168317 543.6722985347985 H 18.297029702970313 V 146.12693528693507" fill="none" stroke="black" stroke-width="2" class="treeEdge" vector-effect="non-scaling-stroke" id="node#12"></path><path d="M 1586.6138613861385 365.23846153846154 H 1325.2277227722773 V 354.0576923076923" fill="none" stroke="black" stroke-width="2" class="treeEdge" vector-effect="non-scaling-stroke" id="node#93"></path><path d="M 1325.2277227722773 354.0576923076923 H 1063.8415841584158 V 341.0134615384616" fill="none" stroke="black" stroke-width="2" class="treeEdge" vector-effect="non-scaling-stroke" id="node#92"></path><path d="M 1586.6138613861385 327.96923076923076 H 1063.8415841584158 V 341.0134615384616" fill="none" stroke="black" stroke-width="2" class="treeEdge" vector-effect="non-scaling-stroke" id="node#90"></path><path d="M 1063.8415841584158 341.0134615384616 H 802.4554455445544 V 327.0375" fill="none" stroke="black" stroke-width="2" class="treeEdge" vector-effect="non-scaling-stroke" id="node#89"></path><path d="M 802.4554455445544 327.0375 H 18.297029702970313 V 146.12693528693507" fill="none" stroke="black" stroke-width="2" class="treeEdge" vector-effect="non-scaling-stroke" id="node#88"></path><path d="M 1586.6138613861385 290.70000000000005 H 1325.2277227722773 V 262.74807692307695" fill="none" stroke="black" stroke-width="2" class="treeEdge" vector-effect="non-scaling-stroke" id="node#2"></path><path d="M 1325.2277227722773 262.74807692307695 H 18.297029702970313 V 146.12693528693507" fill="none" stroke="black" stroke-width="2" class="treeEdge" vector-effect="non-scaling-stroke" id="node#1"></path><path d="M 1586.6138613861385 208.70769230769233 H 18.297029702970313 V 146.12693528693507" fill="none" stroke="black" stroke-width="2" class="treeEdge" vector-effect="non-scaling-stroke" id="node#8"></path><path d="M 1586.6138613861385 178.8923076923077 H 1325.2277227722773 V 171.43846153846158" fill="none" stroke="black" stroke-width="2" class="treeEdge" vector-effect="non-scaling-stroke" id="node#85"></path><path d="M 1325.2277227722773 171.43846153846158 H 18.297029702970313 V 146.12693528693507" fill="none" stroke="black" stroke-width="2" class="treeEdge" vector-effect="non-scaling-stroke" id="node#84"></path><path d="M 1586.6138613861385 141.62307692307684 H 18.297029702970313 V 146.12693528693507" fill="none" stroke="black" stroke-width="2" class="treeEdge" vector-effect="non-scaling-stroke" id="node#98"></path><path d="M 18.297029702970313 146.12693528693507 H 0 V 146.12693528693507" fill="none" stroke="black" stroke-width="2" class="treeEdge" vector-effect="non-scaling-stroke" id="node#0"></path><text x="1848" y="969" dominant-baseline="central" transform="matrix(1.067, 0, 0, 1.07637, 0, 0) matrix(1, 0, 0, 1, -116.042, -68.7498)">Croatian</text><text x="1848" y="954.0923076923077" dominant-baseline="central" transform="matrix(1.067, 0, 0, 1.07637, 0, 0) matrix(1, 0, 0, 1, -116.042, -67.6921)">Serbian</text><text x="1848" y="939.1846153846154" dominant-baseline="central" transform="matrix(1.067, 0, 0, 1.07637, 0, 0) matrix(1, 0, 0, 1, -116.042, -66.6344)">Slovenian</text><text x="1848" y="924.276923076923" dominant-baseline="central" transform="matrix(1.067, 0, 0, 1.07637, 0, 0) matrix(1, 0, 0, 1, -116.042, -65.5767)">Bulgarian</text><text x="1848" y="909.3692307692307" dominant-baseline="central" transform="matrix(1.067, 0, 0, 1.07637, 0, 0) matrix(1, 0, 0, 1, -116.042, -64.519)">Czech</text><text x="1848" y="894.4615384615386" dominant-baseline="central" transform="matrix(1.067, 0, 0, 1.07637, 0, 0) matrix(1, 0, 0, 1, -116.042, -63.4613)">Slovak</text><text x="1848" y="879.5538461538462" dominant-baseline="central" transform="matrix(1.067, 0, 0, 1.07637, 0, 0) matrix(1, 0, 0, 1, -116.042, -62.4036)">Polish</text><text x="1848" y="864.6461538461538" dominant-baseline="central" transform="matrix(1.067, 0, 0, 1.07637, 0, 0) matrix(1, 0, 0, 1, -116.042, -61.3459)">Upper_Sorbian</text><text x="1848" y="849.7384615384615" dominant-baseline="central" transform="matrix(1.067, 0, 0, 1.07637, 0, 0) matrix(1, 0, 0, 1, -116.042, -60.2882)">Ukrainian</text><text x="1848" y="834.8307692307693" dominant-baseline="central" transform="matrix(1.067, 0, 0, 1.07637, 0, 0) matrix(1, 0, 0, 1, -116.042, -59.2306)">Russian</text><text x="1848" y="819.9230769230769" dominant-baseline="central" transform="matrix(1.067, 0, 0, 1.07637, 0, 0) matrix(1, 0, 0, 1, -116.042, -58.1729)">Belarusian</text><text x="1848" y="805.0153846153845" dominant-baseline="central" transform="matrix(1.067, 0, 0, 1.07637, 0, 0) matrix(1, 0, 0, 1, -116.042, -57.1152)">Latvian</text><text x="1848" y="790.1076923076923" dominant-baseline="central" transform="matrix(1.067, 0, 0, 1.07637, 0, 0) matrix(1, 0, 0, 1, -116.042, -56.0575)">Lithuanian</text><text x="1848" y="775.2" dominant-baseline="central" transform="matrix(1.067, 0, 0, 1.07637, 0, 0) matrix(1, 0, 0, 1, -116.042, -54.9998)">Faroese</text><text x="1848" y="760.2923076923076" dominant-baseline="central" transform="matrix(1.067, 0, 0, 1.07637, 0, 0) matrix(1, 0, 0, 1, -116.042, -53.9421)">Icelandic</text><text x="1848" y="745.3846153846154" dominant-baseline="central" transform="matrix(1.067, 0, 0, 1.07637, 0, 0) matrix(1, 0, 0, 1, -116.042, -52.8844)">Norwegian</text><text x="1848" y="730.4769230769231" dominant-baseline="central" transform="matrix(1.067, 0, 0, 1.07637, 0, 0) matrix(1, 0, 0, 1, -116.042, -51.8267)">Swedish</text><text x="1848" y="715.5692307692308" dominant-baseline="central" transform="matrix(1.067, 0, 0, 1.07637, 0, 0) matrix(1, 0, 0, 1, -116.042, -50.7691)">Danish</text><text x="1848" y="700.6615384615385" dominant-baseline="central" transform="matrix(1.067, 0, 0, 1.07637, 0, 0) matrix(1, 0, 0, 1, -116.042, -49.7114)">Afrikaans</text><text x="1848" y="685.7538461538461" dominant-baseline="central" transform="matrix(1.067, 0, 0, 1.07637, 0, 0) matrix(1, 0, 0, 1, -116.042, -48.6537)">Dutch</text><text x="1848" y="670.8461538461538" dominant-baseline="central" transform="matrix(1.067, 0, 0, 1.07637, 0, 0) matrix(1, 0, 0, 1, -116.042, -47.596)">English</text><text x="1848" y="655.9384615384615" dominant-baseline="central" transform="matrix(1.067, 0, 0, 1.07637, 0, 0) matrix(1, 0, 0, 1, -116.042, -46.5383)">German</text><text x="1848" y="641.0307692307692" dominant-baseline="central" transform="matrix(1.067, 0, 0, 1.07637, 0, 0) matrix(1, 0, 0, 1, -116.042, -45.4806)">Gothic</text><text x="1848" y="626.1230769230768" dominant-baseline="central" transform="matrix(1.067, 0, 0, 1.07637, 0, 0) matrix(1, 0, 0, 1, -116.042, -44.4229)">Galician</text><text x="1848" y="611.2153846153846" dominant-baseline="central" transform="matrix(1.067, 0, 0, 1.07637, 0, 0) matrix(1, 0, 0, 1, -116.042, -43.3652)">Portuguese</text><text x="1848" y="596.3076923076924" dominant-baseline="central" transform="matrix(1.067, 0, 0, 1.07637, 0, 0) matrix(1, 0, 0, 1, -116.042, -42.3075)">Spanish</text><text x="1848" y="581.4" dominant-baseline="central" transform="matrix(1.067, 0, 0, 1.07637, 0, 0) matrix(1, 0, 0, 1, -116.042, -41.2499)">Catalan</text><text x="1848" y="566.4923076923076" dominant-baseline="central" transform="matrix(1.067, 0, 0, 1.07637, 0, 0) matrix(1, 0, 0, 1, -116.042, -40.1922)">French</text><text x="1848" y="551.5846153846154" dominant-baseline="central" transform="matrix(1.067, 0, 0, 1.07637, 0, 0) matrix(1, 0, 0, 1, -116.042, -39.1345)">Italian</text><text x="1848" y="536.6769230769231" dominant-baseline="central" transform="matrix(1.067, 0, 0, 1.07637, 0, 0) matrix(1, 0, 0, 1, -116.042, -38.0768)">Romanian</text><text x="1848" y="521.7692307692307" dominant-baseline="central" transform="matrix(1.067, 0, 0, 1.07637, 0, 0) matrix(1, 0, 0, 1, -116.042, -37.0191)">Hindi</text><text x="1848" y="506.8615384615384" dominant-baseline="central" transform="matrix(1.067, 0, 0, 1.07637, 0, 0) matrix(1, 0, 0, 1, -116.042, -35.9614)">Urdu</text><text x="1848" y="491.95384615384614" dominant-baseline="central" transform="matrix(1.067, 0, 0, 1.07637, 0, 0) matrix(1, 0, 0, 1, -116.042, -34.9037)">Persian</text><text x="1848" y="477.04615384615386" dominant-baseline="central" transform="matrix(1.067, 0, 0, 1.07637, 0, 0) matrix(1, 0, 0, 1, -116.042, -33.846)">Kurmanji</text><text x="1848" y="462.1384615384615" dominant-baseline="central" transform="matrix(1.067, 0, 0, 1.07637, 0, 0) matrix(1, 0, 0, 1, -116.042, -32.7883)">Welsh</text><text x="1848" y="447.2307692307693" dominant-baseline="central" transform="matrix(1.067, 0, 0, 1.07637, 0, 0) matrix(1, 0, 0, 1, -116.042, -31.7307)">Breton</text><text x="1848" y="432.3230769230769" dominant-baseline="central" transform="matrix(1.067, 0, 0, 1.07637, 0, 0) matrix(1, 0, 0, 1, -116.042, -30.673)">Irish</text><text x="1848" y="417.41538461538465" dominant-baseline="central" transform="matrix(1.067, 0, 0, 1.07637, 0, 0) matrix(1, 0, 0, 1, -116.042, -29.6153)">Scottish_Gaelic</text><text x="1848" y="402.50769230769225" dominant-baseline="central" transform="matrix(1.067, 0, 0, 1.07637, 0, 0) matrix(1, 0, 0, 1, -116.042, -28.5576)">Greek</text><text x="1848" y="387.6" dominant-baseline="central" transform="matrix(1.067, 0, 0, 1.07637, 0, 0) matrix(1, 0, 0, 1, -116.042, -27.4999)">Armenian</text><text x="1848" y="372.6923076923077" dominant-baseline="central" transform="matrix(1.067, 0, 0, 1.07637, 0, 0) matrix(1, 0, 0, 1, -116.042, -26.4422)">Maltese</text><text x="1848" y="357.7846153846154" dominant-baseline="central" transform="matrix(1.067, 0, 0, 1.07637, 0, 0) matrix(1, 0, 0, 1, -116.042, -25.3845)">Arabic</text><text x="1848" y="342.87692307692305" dominant-baseline="central" transform="matrix(1.067, 0, 0, 1.07637, 0, 0) matrix(1, 0, 0, 1, -116.042, -24.3268)">Hebrew</text><text x="1848" y="327.96923076923076" dominant-baseline="central" transform="matrix(1.067, 0, 0, 1.07637, 0, 0) matrix(1, 0, 0, 1, -116.042, -23.2691)">Amharic</text><text x="1848" y="313.0615384615384" dominant-baseline="central" transform="matrix(1.067, 0, 0, 1.07637, 0, 0) matrix(1, 0, 0, 1, -116.042, -22.2115)">Coptic</text><text x="1848" y="298.1538461538462" dominant-baseline="central" transform="matrix(1.067, 0, 0, 1.07637, 0, 0) matrix(1, 0, 0, 1, -116.042, -21.1538)">Estonian</text><text x="1848" y="283.2461538461538" dominant-baseline="central" transform="matrix(1.067, 0, 0, 1.07637, 0, 0) matrix(1, 0, 0, 1, -116.042, -20.0961)">Finnish</text><text x="1848" y="268.33846153846156" dominant-baseline="central" transform="matrix(1.067, 0, 0, 1.07637, 0, 0) matrix(1, 0, 0, 1, -116.042, -19.0384)">Hungarian</text><text x="1848" y="253.4307692307692" dominant-baseline="central" transform="matrix(1.067, 0, 0, 1.07637, 0, 0) matrix(1, 0, 0, 1, -116.042, -17.9807)">Erzya</text><text x="1848" y="238.52307692307693" dominant-baseline="central" transform="matrix(1.067, 0, 0, 1.07637, 0, 0) matrix(1, 0, 0, 1, -116.042, -16.923)">North_Sami</text><text x="1848" y="223.61538461538458" dominant-baseline="central" transform="matrix(1.067, 0, 0, 1.07637, 0, 0) matrix(1, 0, 0, 1, -116.042, -15.8653)">Uyghur</text><text x="1848" y="208.70769230769233" dominant-baseline="central" transform="matrix(1.067, 0, 0, 1.07637, 0, 0) matrix(1, 0, 0, 1, -116.042, -14.8076)">Turkish</text><text x="1848" y="193.79999999999995" dominant-baseline="central" transform="matrix(1.067, 0, 0, 1.07637, 0, 0) matrix(1, 0, 0, 1, -116.042, -13.75)">Kazakh</text><text x="1848" y="178.8923076923077" dominant-baseline="central" transform="matrix(1.067, 0, 0, 1.07637, 0, 0) matrix(1, 0, 0, 1, -116.042, -12.6923)">Wolof</text><text x="1848" y="163.98461538461535" dominant-baseline="central" transform="matrix(1.067, 0, 0, 1.07637, 0, 0) matrix(1, 0, 0, 1, -116.042, -11.6346)">Bambara</text><text x="1848" y="149.0769230769231" dominant-baseline="central" transform="matrix(1.067, 0, 0, 1.07637, 0, 0) matrix(1, 0, 0, 1, -116.042, -10.5769)">Chinese</text><text x="1848" y="134.16923076923072" dominant-baseline="central" transform="matrix(1.067, 0, 0, 1.07637, 0, 0) matrix(1, 0, 0, 1, -116.042, -9.5192)">Cantonese</text><text x="1848" y="119.26153846153846" dominant-baseline="central" transform="matrix(1.067, 0, 0, 1.07637, 0, 0) matrix(1, 0, 0, 1, -116.042, -8.46151)">Indonesian</text><text x="1848" y="104.3538461538461" dominant-baseline="central" transform="matrix(1.067, 0, 0, 1.07637, 0, 0) matrix(1, 0, 0, 1, -116.042, -7.40382)">Buryat</text><text x="1848" y="89.44615384615385" dominant-baseline="central" transform="matrix(1.067, 0, 0, 1.07637, 0, 0) matrix(1, 0, 0, 1, -116.042, -6.34613)">Naija</text><text x="1848" y="74.53846153846149" dominant-baseline="central" transform="matrix(1.067, 0, 0, 1.07637, 0, 0) matrix(1, 0, 0, 1, -116.042, -5.28844)">Thai</text><text x="1848" y="59.63076923076923" dominant-baseline="central" transform="matrix(1.067, 0, 0, 1.07637, 0, 0) matrix(1, 0, 0, 1, -116.042, -4.23075)">Japanese</text><text x="1848" y="44.723076923076874" dominant-baseline="central" transform="matrix(1.067, 0, 0, 1.07637, 0, 0) matrix(1, 0, 0, 1, -116.042, -3.17307)">Vietnamese</text><text x="1848" y="29.815384615384616" dominant-baseline="central" transform="matrix(1.067, 0, 0, 1.07637, 0, 0) matrix(1, 0, 0, 1, -116.042, -2.11538)">Basque</text><text x="1848" y="14.907692307692255" dominant-baseline="central" transform="matrix(1.067, 0, 0, 1.07637, 0, 0) matrix(1, 0, 0, 1, -116.042, -1.05769)">Mbya_Guarani</text><text x="1848" y="0" dominant-baseline="central" transform="matrix(1.067, 0, 0, 1.07637, 0, 0) matrix(1, 0, 0, 1, -116.042, -0)">Korean</text><text x="1591.6138613861385" y="961.5461538461539" pixelOffsetX="5" pixelOffsetY="0" dominant-baseline="central" class="internalText" transform="matrix(1.067, 0, 0, 1.07637, 0, 0) matrix(1, 0, 0, 1, -99.9425, -68.2209) translate(0.313966)">Serbo_Croatian</text><text x="1330.2277227722773" y="950.3653846153845" pixelOffsetX="5" pixelOffsetY="0" dominant-baseline="central" class="internalText" transform="matrix(1.067, 0, 0, 1.07637, 0, 0) matrix(1, 0, 0, 1, -83.5292, -67.4277) translate(0.313966)">Western_South_Slavic</text><text x="1586.6138613861385" y="919.276923076923" pixelOffsetX="0" pixelOffsetY="-5" dominant-baseline="no-change" class="internalText" transform="matrix(1.067, 0, 0, 1.07637, 0, 0) matrix(1, 0, 0, 1, -99.6285, -65.2219) translate(0, -0.354746)">Old_Church_Slavonic</text><text x="1068.8415841584158" y="937.3211538461538" pixelOffsetX="5" pixelOffsetY="0" dominant-baseline="central" class="internalText" transform="matrix(1.067, 0, 0, 1.07637, 0, 0) matrix(1, 0, 0, 1, -67.116, -66.5022) translate(0.313966)">South_Slavic</text><text x="1591.6138613861385" y="887.0076923076923" pixelOffsetX="5" pixelOffsetY="0" dominant-baseline="central" class="internalText" transform="matrix(1.067, 0, 0, 1.07637, 0, 0) matrix(1, 0, 0, 1, -99.9425, -62.9325) translate(0.313966)">West_Slavic</text><text x="1591.6138613861385" y="834.8307692307693" pixelOffsetX="5" pixelOffsetY="0" dominant-baseline="central" class="internalText" transform="matrix(1.067, 0, 0, 1.07637, 0, 0) matrix(1, 0, 0, 1, -99.9425, -59.2306) translate(0.313966)">Old_Russian</text><text x="807.4554455445544" y="886.3865384615384" pixelOffsetX="5" pixelOffsetY="0" dominant-baseline="central" class="internalText" transform="matrix(1.067, 0, 0, 1.07637, 0, 0) matrix(1, 0, 0, 1, -50.7027, -62.8884) translate(0.313966)">Slavic</text><text x="1591.6138613861385" y="797.5615384615385" pixelOffsetX="5" pixelOffsetY="0" dominant-baseline="central" class="internalText" transform="matrix(1.067, 0, 0, 1.07637, 0, 0) matrix(1, 0, 0, 1, -99.9425, -56.5863) translate(0.313966)">Eastern_Baltic</text><text x="546.0693069306931" y="841.9740384615385" pixelOffsetX="5" pixelOffsetY="0" dominant-baseline="central" class="internalText" transform="matrix(1.067, 0, 0, 1.07637, 0, 0) matrix(1, 0, 0, 1, -34.2894, -59.7374) translate(0.313966)">Balto_Slavic</text><text x="1591.6138613861385" y="767.7461538461538" pixelOffsetX="5" pixelOffsetY="0" dominant-baseline="central" class="internalText" transform="matrix(1.067, 0, 0, 1.07637, 0, 0) matrix(1, 0, 0, 1, -99.9425, -54.471) translate(0.313966)">Icelandic_Faroese</text><text x="1330.2277227722773" y="756.5653846153846" pixelOffsetX="5" pixelOffsetY="0" dominant-baseline="central" class="internalText" transform="matrix(1.067, 0, 0, 1.07637, 0, 0) matrix(1, 0, 0, 1, -83.5292, -53.6777) translate(0.313966)">West_Scandinavian</text><text x="1068.8415841584158" y="734.2038461538461" pixelOffsetX="5" pixelOffsetY="0" dominant-baseline="central" class="internalText" transform="matrix(1.067, 0, 0, 1.07637, 0, 0) matrix(1, 0, 0, 1, -67.116, -52.0912) translate(0.313966)">North_Germanic</text><text x="1591.6138613861385" y="693.2076923076924" pixelOffsetX="5" pixelOffsetY="0" dominant-baseline="central" class="internalText" transform="matrix(1.067, 0, 0, 1.07637, 0, 0) matrix(1, 0, 0, 1, -99.9425, -49.1825) translate(0.313966)">Global_Dutch</text><text x="1330.2277227722773" y="673.3307692307692" pixelOffsetX="5" pixelOffsetY="0" dominant-baseline="central" class="internalText" transform="matrix(1.067, 0, 0, 1.07637, 0, 0) matrix(1, 0, 0, 1, -83.5292, -47.7723) translate(0.313966)">West_Germanic</text><text x="807.4554455445544" y="682.8551282051282" pixelOffsetX="5" pixelOffsetY="0" dominant-baseline="central" class="internalText" transform="matrix(1.067, 0, 0, 1.07637, 0, 0) matrix(1, 0, 0, 1, -50.7027, -48.448) translate(0.313966)">Germanic</text><text x="1591.6138613861385" y="611.2153846153846" pixelOffsetX="5" pixelOffsetY="0" dominant-baseline="central" class="internalText" transform="matrix(1.067, 0, 0, 1.07637, 0, 0) matrix(1, 0, 0, 1, -99.9425, -43.3652) translate(0.313966)">West_Iberian</text><text x="1330.2277227722773" y="596.3076923076924" pixelOffsetX="5" pixelOffsetY="0" dominant-baseline="central" class="internalText" transform="matrix(1.067, 0, 0, 1.07637, 0, 0) matrix(1, 0, 0, 1, -83.5292, -42.3075) translate(0.313966)">Iberian_Romance</text><text x="1586.6138613861385" y="561.4923076923076" pixelOffsetX="0" pixelOffsetY="-5" dominant-baseline="no-change" class="internalText" transform="matrix(1.067, 0, 0, 1.07637, 0, 0) matrix(1, 0, 0, 1, -99.6285, -39.8374) translate(0, -0.354746)">Old_French</text><text x="1068.8415841584158" y="581.4" pixelOffsetX="5" pixelOffsetY="0" dominant-baseline="central" class="internalText" transform="matrix(1.067, 0, 0, 1.07637, 0, 0) matrix(1, 0, 0, 1, -67.116, -41.2499) translate(0.313966)">Western_Romance</text><text x="807.4554455445544" y="566.4923076923076" pixelOffsetX="5" pixelOffsetY="0" dominant-baseline="central" class="internalText" transform="matrix(1.067, 0, 0, 1.07637, 0, 0) matrix(1, 0, 0, 1, -50.7027, -40.1922) translate(0.313966)">Italo_Western_Romance</text><text x="546.0693069306931" y="551.5846153846154" pixelOffsetX="5" pixelOffsetY="0" dominant-baseline="central" class="internalText" transform="matrix(1.067, 0, 0, 1.07637, 0, 0) matrix(1, 0, 0, 1, -34.2894, -39.1345) translate(0.313966)">Latin</text><text x="1591.6138613861385" y="514.3153846153846" pixelOffsetX="5" pixelOffsetY="0" dominant-baseline="central" class="internalText" transform="matrix(1.067, 0, 0, 1.07637, 0, 0) matrix(1, 0, 0, 1, -99.9425, -36.4903) translate(0.313966)">Hindustani</text><text x="1325.2277227722773" y="509.3153846153846" pixelOffsetX="0" pixelOffsetY="-5" dominant-baseline="no-change" class="internalText" transform="matrix(1.067, 0, 0, 1.07637, 0, 0) matrix(1, 0, 0, 1, -83.2153, -36.1355) translate(0, -0.354746)">Sanskrit</text><text x="1591.6138613861385" y="484.5" pixelOffsetX="5" pixelOffsetY="0" dominant-baseline="central" class="internalText" transform="matrix(1.067, 0, 0, 1.07637, 0, 0) matrix(1, 0, 0, 1, -99.9425, -34.3749) translate(0.313966)">Iranian</text><text x="1068.8415841584158" y="499.40769230769223" pixelOffsetX="5" pixelOffsetY="0" dominant-baseline="central" class="internalText" transform="matrix(1.067, 0, 0, 1.07637, 0, 0) matrix(1, 0, 0, 1, -67.116, -35.4326) translate(0.313966)">Indo_Iranian</text><text x="1591.6138613861385" y="454.68461538461537" pixelOffsetX="5" pixelOffsetY="0" dominant-baseline="central" class="internalText" transform="matrix(1.067, 0, 0, 1.07637, 0, 0) matrix(1, 0, 0, 1, -99.9425, -32.2595) translate(0.313966)">Brythonic</text><text x="1591.6138613861385" y="424.86923076923074" pixelOffsetX="5" pixelOffsetY="0" dominant-baseline="central" class="internalText" transform="matrix(1.067, 0, 0, 1.07637, 0, 0) matrix(1, 0, 0, 1, -99.9425, -30.1441) translate(0.313966)">Goidelic</text><text x="1330.2277227722773" y="439.776923076923" pixelOffsetX="5" pixelOffsetY="0" dominant-baseline="central" class="internalText" transform="matrix(1.067, 0, 0, 1.07637, 0, 0) matrix(1, 0, 0, 1, -83.5292, -31.2018) translate(0.313966)">Insular_Celtic</text><text x="1586.6138613861385" y="397.50769230769225" pixelOffsetX="0" pixelOffsetY="-5" dominant-baseline="no-change" class="internalText" transform="matrix(1.067, 0, 0, 1.07637, 0, 0) matrix(1, 0, 0, 1, -99.6285, -28.2028) translate(0, -0.354746)">Koine_Greek</text><text x="1325.2277227722773" y="397.50769230769225" pixelOffsetX="0" pixelOffsetY="-5" dominant-baseline="no-change" class="internalText" transform="matrix(1.067, 0, 0, 1.07637, 0, 0) matrix(1, 0, 0, 1, -83.2153, -28.2028) translate(0, -0.354746)">Classical_Greek</text><text x="1063.8415841584158" y="397.50769230769225" pixelOffsetX="0" pixelOffsetY="-5" dominant-baseline="no-change" class="internalText" transform="matrix(1.067, 0, 0, 1.07637, 0, 0) matrix(1, 0, 0, 1, -66.802, -28.2028) translate(0, -0.354746)">Archaic_Greek</text><text x="284.6831683168317" y="543.6722985347985" pixelOffsetX="5" pixelOffsetY="0" dominant-baseline="central" class="internalText" transform="matrix(1.067, 0, 0, 1.07637, 0, 0) matrix(1, 0, 0, 1, -17.8762, -38.5731) translate(0.313966)">Indo_European</text><text x="1591.6138613861385" y="365.23846153846154" pixelOffsetX="5" pixelOffsetY="0" dominant-baseline="central" class="internalText" transform="matrix(1.067, 0, 0, 1.07637, 0, 0) matrix(1, 0, 0, 1, -99.9425, -25.9134) translate(0.313966)">Arabic</text><text x="1330.2277227722773" y="354.0576923076923" pixelOffsetX="5" pixelOffsetY="0" dominant-baseline="central" class="internalText" transform="matrix(1.067, 0, 0, 1.07637, 0, 0) matrix(1, 0, 0, 1, -83.5292, -25.1201) translate(0.313966)">Central_Semitic</text><text x="1586.6138613861385" y="322.96923076923076" pixelOffsetX="0" pixelOffsetY="-5" dominant-baseline="no-change" class="internalText" transform="matrix(1.067, 0, 0, 1.07637, 0, 0) matrix(1, 0, 0, 1, -99.6285, -22.9144) translate(0, -0.354746)">West_Semitic</text><text x="1068.8415841584158" y="341.0134615384616" pixelOffsetX="5" pixelOffsetY="0" dominant-baseline="central" class="internalText" transform="matrix(1.067, 0, 0, 1.07637, 0, 0) matrix(1, 0, 0, 1, -67.116, -24.1946) translate(0.313966)">Semitic</text><text x="807.4554455445544" y="327.0375" pixelOffsetX="5" pixelOffsetY="0" dominant-baseline="central" class="internalText" transform="matrix(1.067, 0, 0, 1.07637, 0, 0) matrix(1, 0, 0, 1, -50.7027, -23.203) translate(0.313966)">Afroasiatic</text><text x="1591.6138613861385" y="290.70000000000005" pixelOffsetX="5" pixelOffsetY="0" dominant-baseline="central" class="internalText" transform="matrix(1.067, 0, 0, 1.07637, 0, 0) matrix(1, 0, 0, 1, -99.9425, -20.6249) translate(0.313966)">Finnic</text><text x="1330.2277227722773" y="262.74807692307695" pixelOffsetX="5" pixelOffsetY="0" dominant-baseline="central" class="internalText" transform="matrix(1.067, 0, 0, 1.07637, 0, 0) matrix(1, 0, 0, 1, -83.5292, -18.6418) translate(0.313966)">Uralic</text><text x="1591.6138613861385" y="208.70769230769233" pixelOffsetX="5" pixelOffsetY="0" dominant-baseline="central" class="internalText" transform="matrix(1.067, 0, 0, 1.07637, 0, 0) matrix(1, 0, 0, 1, -99.9425, -14.8076) translate(0.313966)">Common_Turkic</text><text x="1586.6138613861385" y="173.8923076923077" pixelOffsetX="0" pixelOffsetY="-5" dominant-baseline="no-change" class="internalText" transform="matrix(1.067, 0, 0, 1.07637, 0, 0) matrix(1, 0, 0, 1, -99.6285, -12.3375) translate(0, -0.354746)">Atlantic_Congo</text><text x="1330.2277227722773" y="171.43846153846158" pixelOffsetX="5" pixelOffsetY="0" dominant-baseline="central" class="internalText" transform="matrix(1.067, 0, 0, 1.07637, 0, 0) matrix(1, 0, 0, 1, -83.5292, -12.1634) translate(0.313966)">Niger_Congo</text><text x="1591.6138613861385" y="141.62307692307684" pixelOffsetX="5" pixelOffsetY="0" dominant-baseline="central" class="internalText" transform="matrix(1.067, 0, 0, 1.07637, 0, 0) matrix(1, 0, 0, 1, -99.9425, -10.048) translate(0.313966)">Classical_Chinese</text><text x="23.297029702970313" y="146.12693528693507" pixelOffsetX="5" pixelOffsetY="0" dominant-baseline="central" class="internalText" transform="matrix(1.067, 0, 0, 1.07637, 0, 0) matrix(1, 0, 0, 1, -1.46289, -10.3676) translate(0.313966)">_ROOT_</text></svg>